<?xml version="1.0" encoding="UTF-8" standalone="no"?>
<svg
   xmlns:dc="http://purl.org/dc/elements/1.1/"
   xmlns:cc="http://creativecommons.org/ns#"
   xmlns:rdf="http://www.w3.org/1999/02/22-rdf-syntax-ns#"
   xmlns:svg="http://www.w3.org/2000/svg"
   xmlns="http://www.w3.org/2000/svg"
   viewBox="0 0 20 23.75"
   height="47.5"
   width="40"
   xml:space="preserve"
   version="1.1"
   id="svg2"><metadata
     id="metadata8"><rdf:RDF><cc:Work
         rdf:about=""><dc:format>image/svg+xml</dc:format><dc:type
           rdf:resource="http://purl.org/dc/dcmitype/StillImage" /></cc:Work></rdf:RDF></metadata><defs
     id="defs6" /><g
     transform="matrix(1.25,0,0,-1.25,0,23.75)"
     id="g10"><g
       transform="scale(0.1,0.1)"
       id="g12"><path
         id="path14"
         style="fill:#231f20;fill-opacity:1;fill-rule:nonzero;stroke:none"
         d="m 31.8555,180.277 92.2735,0 0,-0.019 c 8.441,-0.012 16.133,-3.461 21.691,-9.031 5.528,-5.528 8.973,-13.188 8.996,-21.629 l 0.016,0 0,-74.3402 -0.016,0 c -0.011,-8.4453 -3.476,-16.1367 -9.027,-21.6914 l 0,-0.0234 c -5.519,-5.5274 -13.18,-8.9805 -21.609,-9.0039 l 0,-0.0157 -0.086,0 0,0.0157 -27.0706,0 L 90.8711,32.832 90.8633,32.8359 81.5508,15.0664 77.25,6.86719 l -4.293,8.19921 -9.3086,17.7813 -6.1171,11.6757 -25.7149,0 0,0.0157 C 23.3711,44.5508 15.6875,48.0234 10.1289,53.5938 4.60156,59.1289 1.16016,66.793 1.13672,75.2109 l -0.01953,0 0,74.3481 0.01953,0 c 0.01172,8.468 3.47266,16.16 9.04298,21.711 5.5312,5.527 13.1836,8.968 21.5976,8.988 l 0,0.019 0.0782,0 z m 92.2385,-9.726 -92.3167,0 0,0.012 c -5.7265,-0.012 -10.9609,-2.372 -14.7578,-6.172 -3.8047,-3.801 -6.1836,-9.059 -6.1875,-14.832 l 0.0157,0 0,-74.3481 -0.0157,0 c 0.0157,-5.7304 2.3868,-10.9765 6.1797,-14.7812 3.8008,-3.8164 9.0547,-6.1953 14.8047,-6.1953 l 0,0.0117 31.5664,0 1.3672,-2.6133 7.4883,-14.3008 5.0117,-9.5742 5.0273,9.5742 0,0.0196 7.5157,14.2929 1.3633,2.5899 32.9377,0 0,0.0117 0.086,0 0,-0.0117 c 5.703,0.0117 10.925,2.3828 14.73,6.1914 l 0.012,-0.0117 c 3.812,3.8203 6.195,9.0859 6.199,14.8437 l -0.016,0 0,74.3402 0.016,0 c -0.016,5.75 -2.383,10.992 -6.183,14.793 -3.797,3.8 -9.055,6.172 -14.809,6.172 l 0,-0.012 -0.035,0" /><path
         id="path16"
         style="fill:#231f20;fill-opacity:1;fill-rule:nonzero;stroke:none"
         d="m 76.3008,160.395 c 8.0781,0 11.5312,-9.961 14.6406,-18.981 l -0.0234,0 c 1.4414,-4.168 2.7968,-8.059 3.6953,-9.008 l 0.0039,-0.004 0.0625,-0.039 c 0.8984,-0.711 5.6993,-0.871 10.6793,-1.031 l 0.024,0 c 9.133,-0.277 18.707,-0.602 21.113,-7.305 l 0.02,-0.011 c 2.422,-6.868 -4.551,-12.223 -11.75,-17.727 -4.118,-3.141 -8.344,-6.3749 -9.266,-8.582 l -0.008,0 0.008,-0.0078 c -0.805,-2.039 0.855,-7.2344 2.445,-12.2383 2.602,-8.1601 5.114,-16.0234 -0.41,-20.4453 l -0.012,-0.0117 c -6.05,-4.8281 -14.691,1.0742 -22.605,6.5039 -3.9414,2.7031 -7.6367,5.2344 -8.6172,5.2344 l -0.0469,0 c -1.0273,-0.1133 -4.4101,-2.4609 -8.043,-5.0078 -7.6171,-5.3399 -16.1132,-11.2774 -22.7382,-7 l -0.0235,0 c -6.8476,4.4531 -3.8164,13.957 -0.9219,22.9648 l 0,0 c 1.4766,4.6055 2.8985,9.0547 2.4727,10.2344 l -0.0117,-0.0039 c -0.5,1.3164 -4.1133,4.0043 -7.8867,6.7973 -7.5625,5.621 -15.6368,11.605 -13,19.246 l 0.0117,0 c 2.5898,7.586 12.539,7.722 21.8828,7.84 4.6133,0.058 9.0625,0.117 10.4375,0.882 l -0.0078,0.008 0.0469,0.031 0.0117,0.012 0.0625,0.035 0,-0.004 c 1.1172,0.926 2.5742,5.36 4.0703,9.899 l 0.0039,0 c 2.8672,8.707 5.8555,17.719 13.6797,17.719 z m 5.4414,-22.129 c -2.0352,5.902 -4.2891,12.433 -5.4414,12.433 -0.8164,0 -2.6719,-5.621 -4.4531,-11.047 l 0,-0.019 c -2.0547,-6.242 -4.0625,-12.317 -8,-14.965 l -0.0938,-0.063 -0.1211,-0.074 -0.0547,-0.043 c -3.5937,-2.215 -9.4101,-2.293 -15.4765,-2.371 -6.0196,-0.078 -12.4375,-0.168 -12.8047,-1.258 l 0,-0.035 c -0.3242,-0.953 4.789,-4.746 9.582,-8.308 4.9492,-3.668 9.6875,-7.18 11.1875,-11.121 l 0.0391,-0.118 0.0312,-0.097 -0.0078,0 C 57.6484,96.9336 55.7305,90.9492 53.7578,84.7539 l 0,-0.0195 C 51.9688,79.1563 50.0859,73.2852 50.7383,72.8672 l -0.0117,-0.0117 c 1.1914,-0.711 6.8515,3.2539 11.9414,6.8203 4.9765,3.4922 9.5937,6.7265 13.5312,6.7773 l 0.0547,0.0157 0.0469,0 c 3.957,0 8.8594,-3.3633 14.0859,-6.9415 5.0117,-3.4375 10.4963,-7.1875 11.0743,-6.9414 l 0.008,0 0.011,0.0118 c 0.27,0.4218 -1.218,5.0976 -2.7652,9.9414 -2.1171,6.6445 -4.3125,13.5273 -2.2539,18.7339 l 0.0196,0.012 0.0312,0.086 0.0196,0.063 c 1.9257,4.601 7.2027,8.636 12.3437,12.566 4.344,3.324 8.57,6.551 8.484,6.781 l 0.008,0 c -0.371,0.477 -6.465,0.684 -12.273,0.856 l -0.02,0 c -6.6287,0.207 -13.031,0.418 -16.4373,3.129 l 0.0039,0.004 -0.0156,0.007 -0.1562,0.137 c -2.9493,2.481 -4.7657,7.731 -6.7032,13.352 l -0.0234,0 z m -23.2891,-5.547 0.0078,0.008 0.0118,0.007 -0.0196,-0.015" /></g></g></svg>
